<?xml version="1.0" encoding="utf-8"?>
<!-- Generator: Adobe Illustrator 24.0.2, SVG Export Plug-In . SVG Version: 6.00 Build 0)  -->
<svg version="1.1" id="Layer_1" xmlns="http://www.w3.org/2000/svg" xmlns:xlink="http://www.w3.org/1999/xlink" x="0px" y="0px"
	 viewBox="0 0 646 646.8" style="enable-background:new 0 0 646 646.8;" xml:space="preserve">
<style type="text/css">
	.st0{fill:#03A1FC;}
</style>
<g>
	<path class="st0" d="M559.6,293.3c-7.8-8-18.6-12.2-29.7-11.5l-134,7.5l73.7-84c10.5-12,13.5-27.9,9.4-42.2
		c-2.1-9.8-8.1-18.6-17.1-24.3c-0.3-0.2-176.2-102.4-176.2-102.4c-14.4-8.3-32.5-6.5-44.9,4.6l-86,76.7
		c-15.8,14.1-17.2,38.4-3.1,54.3c14.1,15.8,38.4,17.2,54.3,3.1l65.2-58.1l53.9,31.3L230,256.3c-39.4,6.4-74.9,24.6-102.8,50.8
		l49.7,49.7c22.4-20.4,52.3-32.9,84.9-32.9c69.7,0,126.3,56.7,126.3,126.3c0,32.7-12.5,62.5-32.9,84.9l49.7,49.7
		c33.1-35.2,53.4-82.5,53.4-134.6c0-31-7.2-60.4-20-86.5l51.9-2.9l-12.6,154.8c-1.7,21.2,14,39.7,35.2,41.4c1.1,0.1,2.1,0.1,3.2,0.1
		c19.8,0,36.6-15.2,38.3-35.3l16.2-198.7C571.2,312.1,567.3,301.2,559.6,293.3z"/>
	<path class="st0" d="M488.4,128.6c35.5,0,64.3-28.8,64.3-64.3c0-35.5-28.8-64.3-64.3-64.3c-35.5,0-64.3,28.8-64.3,64.3
		C424.1,99.8,452.9,128.6,488.4,128.6z"/>
	<path class="st0" d="M261.8,576.6c-69.7,0-126.3-56.7-126.3-126.3c0-26.3,8.1-50.7,21.8-70.9l-50.2-50.2
		c-26.2,33.4-41.8,75.4-41.8,121.1c0,108.5,88,196.5,196.5,196.5c45.7,0,87.7-15.6,121.1-41.8l-50.2-50.2
		C312.5,568.5,288,576.6,261.8,576.6z"/>
</g>
</svg>
