<?xml version="1.0" encoding="utf-8"?>
<!-- Generator: Adobe Illustrator 24.0.2, SVG Export Plug-In . SVG Version: 6.00 Build 0)  -->
<svg version="1.1" id="Layer_1" xmlns="http://www.w3.org/2000/svg" xmlns:xlink="http://www.w3.org/1999/xlink" x="0px" y="0px"
	 viewBox="0 0 67.9 66" style="enable-background:new 0 0 67.9 66;" xml:space="preserve">
<style type="text/css">
	.st0{fill:#4BA2F9;}
</style>
<g>
	<path class="st0" d="M63.1,35.8c-2.7,0-3.3,4.3-3.3,4.3c-2.2,11.4-12.6,19.9-25,19.9c-9.5,0-17.8-5.1-22.1-12.5l5.2-2.3
		c1.4-0.6,1.6-2.5,0.3-3.4L4.8,32.6c-1.3-0.9-3.1-0.1-3.2,1.4L0,49.8c-0.2,1.5,1.5,2.6,2.9,2L7,50c5.3,9.5,15.7,16,27.7,16
		c15.9,0.1,29-11.2,31.4-25.8C66,40.2,66.7,35.9,63.1,35.8z"/>
	<path class="st0" d="M64.9,14.3l-4,1.8C55.6,6.5,45.2,0,33.2,0C17.3-0.1,4.1,11.2,1.8,25.9c0,0-0.7,4.3,3,4.4
		c2.7,0,3.3-4.3,3.3-4.3C10.3,14.5,20.7,6,33.1,6c9.5,0,17.8,5.1,22.1,12.6L50,20.9c-1.4,0.6-1.6,2.5-0.3,3.4l13.4,9.2
		c1.3,0.9,3.1,0.1,3.2-1.4l1.5-15.8C68,14.7,66.4,13.6,64.9,14.3z"/>
</g>
</svg>
