<?xml version="1.0" encoding="utf-8"?>
<!-- Generator: Adobe Illustrator 24.0.2, SVG Export Plug-In . SVG Version: 6.00 Build 0)  -->
<svg version="1.1" id="Layer_1" xmlns="http://www.w3.org/2000/svg" xmlns:xlink="http://www.w3.org/1999/xlink" x="0px" y="0px"
	 viewBox="0 0 461.2 520.2" style="enable-background:new 0 0 461.2 520.2;" xml:space="preserve">
<style type="text/css">
	.st0{fill:url(#SVGID_1_);}
	.st1{fill:#325AB2;}
	.st2{fill:#3B69BC;}
	.st3{fill:#FFFFFF;}
	.st4{fill:#124A9B;}
</style>
<linearGradient id="SVGID_1_" gradientUnits="userSpaceOnUse" x1="230.55" y1="347.4099" x2="230.55" y2="174.298" gradientTransform="matrix(1 0 0 -1 0 522)">
	<stop  offset="0" style="stop-color:#3EC4F9"/>
	<stop  offset="1" style="stop-color:#002A87"/>
</linearGradient>
<rect y="0.3" class="st0" width="461.1" height="519.9"/>
<rect x="16.1" y="407.6" class="st1" width="53.9" height="112.6"/>
<rect x="49.9" y="418.5" class="st2" width="58.8" height="101.8"/>
<path class="st3" d="M204.1,112.3h-0.3c-3.4-13.8-15.8-24-30.7-24c-16.9,0-30.6,13.2-31.6,29.9c-2.7-1.3-5.7-2.1-8.8-2.1
	c-11.2,0-20.2,9-20.2,20.2c0,11.2,9,20.2,20.2,20.2c0.4,0,0.9,0,1.3-0.1c0.4,0,0.9,0.1,1.3,0.1H170h5.7h28.4
	c12.2,0,22.1-9.9,22.1-22.1S216.3,112.3,204.1,112.3z"/>
<path class="st3" d="M345.3,33H345c-3.4-13.8-15.8-24.1-30.7-24.1c-16.9,0-30.6,13.2-31.6,29.9c-2.7-1.3-5.7-2.1-8.8-2.1
	c-11.2,0-20.2,9-20.2,20.2c0,11.2,9,20.2,20.2,20.2c0.3,0,0.6,0,0.8,0c0.6,0.1,1.2,0.1,1.8,0.1h34.7h5.7h28.4
	c12.2,0,22.1-10,22.1-22.1C367.4,42.9,357.5,33,345.3,33z"/>
<rect x="176.5" y="440.2" class="st2" width="42.3" height="80"/>
<rect x="82.3" y="395.5" class="st4" width="40" height="124.7"/>
<rect x="148.2" y="412" class="st1" width="42.3" height="108.2"/>
<rect x="368.1" y="414.4" class="st1" width="37.9" height="61.2"/>
<rect x="342.3" y="426.1" class="st2" width="37.6" height="61.2"/>
<rect x="105.9" y="428.5" class="st2" width="58.8" height="91.8"/>
<rect x="235.3" y="402.6" class="st1" width="47.1" height="117.6"/>
<rect x="72.9" y="463.8" class="st1" width="47.1" height="56.5"/>
<rect x="214.1" y="419.1" class="st4" width="30.6" height="101.2"/>
<rect x="310.6" y="407.3" class="st4" width="35.3" height="112.9"/>
<rect x="265.9" y="421.4" class="st1" width="40" height="58.8"/>
<rect x="181.2" y="459.1" class="st1" width="47.1" height="61.2"/>
<rect x="296.4" y="428.5" class="st2" width="37.6" height="91.8"/>
<rect x="258.8" y="454.3" class="st4" width="61.2" height="65.9"/>
<rect x="207" y="487.3" class="st2" width="61.2" height="32.9"/>
<rect x="338" y="454.3" class="st4" width="52.5" height="65.9"/>
<rect x="312.9" y="461.4" class="st1" width="40" height="58.8"/>
<rect x="418.9" y="410.1" class="st1" width="42.1" height="110.1"/>
<path class="st3" d="M331.7,162.6h-0.3c-3.4-13.8-15.8-24.1-30.7-24.1c-16.9,0-30.6,13.2-31.6,29.9c-2.7-1.3-5.7-2.1-8.8-2.1
	c-11.2,0-20.2,9-20.2,20.2c0,11.2,9,20.2,20.2,20.2c0.3,0,0.5,0,0.8,0c0.6,0.1,1.2,0.1,1.7,0.1h34.8h5.6h28.5
	c12.1,0,22.1-10,22.1-22.1C353.8,172.5,343.9,162.6,331.7,162.6z"/>
<rect x="387.3" y="428.2" class="st2" width="37.6" height="92"/>
<rect y="445.1" class="st4" width="30.7" height="75.1"/>
<path class="st3" d="M56.4,78.2h-0.3c-3.4-13.8-15.8-24-30.7-24C15,54.2,5.7,59.3-0.1,67.1v30.1v7.3v17.9h22.3H28h28.4
	c12.2,0,22.1-9.9,22.1-22.1l0,0C78.5,88.2,68.6,78.2,56.4,78.2z"/>
<path class="st3" d="M107.3,0c-2.5,3.4-4,7.5-4,12c0,11.2,9.1,20.2,20.2,20.2c0.4,0,0.8,0,1.3-0.1c0.4,0,0.8,0.1,1.3,0.1h34.7h5.7
	h28.4c12.2,0,22.1-9.9,22.1-22.1c0-3.6-0.9-7.1-2.5-10.1"/>
<path class="st3" d="M462.2,105.3c0-1.2-0.1-2.4-0.2-3.6v-4h-0.7c-3.4-13.8-15.8-24-30.7-24c-16.9,0-30.7,13.2-31.5,29.9
	c-2.7-1.3-5.7-2.1-8.9-2.1c-11.2,0-20.2,9.1-20.2,20.2c0,11.2,9.1,20.2,20.2,20.2c0.4,0,0.8,0,1.3-0.1c0.4,0,0.8,0.1,1.3,0.1h35.7
	h4.7H462v-33.1C462.1,107.7,462.2,106.5,462.2,105.3z"/>
</svg>
