<?xml version="1.0" encoding="utf-8"?>
<!-- Generator: Adobe Illustrator 24.0.2, SVG Export Plug-In . SVG Version: 6.00 Build 0)  -->
<svg version="1.1" id="Layer_1" xmlns="http://www.w3.org/2000/svg" xmlns:xlink="http://www.w3.org/1999/xlink" x="0px" y="0px"
	 viewBox="0 0 66.69 67" style="enable-background:new 0 0 66.69 67;" xml:space="preserve">
<style type="text/css">
	.st0{fill:#2BF7B3;}
</style>
<path class="st0" d="M63.46,33.68c-2.84,0-3.51,4.77-3.51,4.77c-2.32,12.5-13.28,21.97-26.45,21.97
	c-14.86,0-26.91-12.05-26.91-26.91c0-14.86,12.05-26.91,26.91-26.91c7.38,0,14.05,2.97,18.91,7.77l-5.16,2.39
	c-1.52,0.71-1.71,2.8-0.34,3.76l14.23,10.02c1.37,0.97,3.28,0.08,3.43-1.59l1.56-17.33c0.15-1.67-1.57-2.88-3.09-2.18l-4.34,2.01
	C52.57,4.43,43.56,0,33.5,0C15,0,0,15,0,33.5C0,52,15,67,33.5,67c16.82,0,30.74-12.4,33.13-28.56
	C66.63,38.44,67.35,33.68,63.46,33.68z"/>
</svg>
