<?xml version="1.0" encoding="utf-8"?>
<!-- Generator: Adobe Illustrator 24.0.2, SVG Export Plug-In . SVG Version: 6.00 Build 0)  -->
<svg version="1.1" id="Layer_1" xmlns="http://www.w3.org/2000/svg" xmlns:xlink="http://www.w3.org/1999/xlink" x="0px" y="0px"
	 viewBox="0 0 49 49" style="enable-background:new 0 0 49 49;" xml:space="preserve">
<style type="text/css">
	.st0{fill:#FBD309;}
	.st1{fill:#3EC4F9;}
</style>
<rect class="st0" width="49" height="49"/>
<g>
	<path class="st1" d="M24.7,9.8c0.9,0,1.8,0.1,2.6,0.2l-2.5-8.4L22.3,10C23.1,9.9,23.9,9.8,24.7,9.8z"/>
	<path class="st1" d="M18.3,11.2l-6.9-5.3l2.9,8.2C15.5,12.9,16.8,12,18.3,11.2z"/>
	<path class="st1" d="M11.8,17.5l-8.7-0.3l7.2,4.9C10.6,20.5,11.1,18.9,11.8,17.5z"/>
	<circle class="st1" cx="24.7" cy="24.3" r="11.8"/>
	<path class="st1" d="M37.5,17.5c0.8,1.5,1.3,3.1,1.5,4.8l7.4-5L37.5,17.5z"/>
	<path class="st1" d="M35.2,14.3l3-8.3l-7,5.4C32.7,12.1,34,13.1,35.2,14.3z"/>
	<path class="st1" d="M10.3,26.3l-7.2,4.9l8.7-0.2C11,29.6,10.5,28,10.3,26.3z"/>
	<path class="st1" d="M31.1,37.3l7,5.4l-3-8.3C34,35.5,32.6,36.5,31.1,37.3z"/>
	<path class="st1" d="M37.5,31.1l8.9,0.3L39,26.3C38.8,28,38.3,29.6,37.5,31.1z"/>
	<path class="st1" d="M24.7,38.8c-0.8,0-1.6-0.1-2.4-0.2l2.5,8.4l2.5-8.4C26.4,38.7,25.5,38.8,24.7,38.8z"/>
	<path class="st1" d="M14.3,34.4l-2.9,8.2l6.9-5.3C16.8,36.6,15.4,35.6,14.3,34.4z"/>
</g>
</svg>
